<?xml version="1.0" standalone="no"?>
<!DOCTYPE svg PUBLIC "-//W3C//DTD SVG 20010904//EN"
 "http://www.w3.org/TR/2001/REC-SVG-20010904/DTD/svg10.dtd">
<svg version="1.0" xmlns="http://www.w3.org/2000/svg"
 width="170" height="55" viewBox="0 0 8001.000000 1919.000000"
 preserveAspectRatio="xMidYMid meet">

<g transform="translate(0.000000,1919.000000) scale(0.100000,-0.100000)"
fill="#FFFFFF" stroke="none">
<path d="M11665 16973 c-143 -30 -274 -102 -389 -212 -113 -109 -183 -228
-228 -386 l-23 -80 -3 -6130 c-2 -4348 0 -6158 8 -6225 38 -336 267 -603 605
-707 58 -17 912 -18 27165 -20 24625 -3 27113 -2 27189 13 314 58 569 303 649
623 15 61 17 555 20 6186 2 4193 -1 6151 -8 6218 -21 198 -93 349 -235 493
-124 126 -250 196 -411 229 -65 13 -3042 15 -27171 14 -24030 -1 -27106 -2
-27168 -16z m54340 -256 c184 -64 309 -190 377 -377 l23 -65 0 -6165 0 -6165
-23 -75 c-56 -177 -187 -315 -365 -382 l-62 -23 -27090 -3 c-24140 -2 -27096
0 -27150 13 -193 49 -343 186 -413 376 l-27 74 -3 6143 c-2 6792 -8 6215 62
6357 84 169 253 290 441 315 33 4 12230 7 27105 6 l27045 -1 80 -28z"/>
<path d="M12970 15794 c-80 -17 -209 -80 -272 -132 -110 -92 -189 -218 -222
-353 -15 -59 -16 -534 -16 -5210 0 -4555 2 -5152 15 -5204 59 -233 241 -418
475 -482 62 -17 646 -18 14165 -18 13609 0 14102 1 14164 18 179 51 335 177
416 337 13 25 34 79 47 120 l23 75 0 5155 c0 4972 -1 5157 -18 5220 -70 245
-259 424 -500 474 -69 15 -1417 16 -14144 15 -11999 0 -14078 -3 -14133 -15z
m2620 -3687 l538 -1069 542 1071 542 1071 599 0 598 0 -18 -32 c-11 -18 -400
-734 -865 -1591 l-846 -1558 0 -1015 0 -1014 -550 0 -550 0 0 993 0 992 -801
1490 c-440 820 -830 1545 -865 1613 l-66 122 603 -2 602 -3 537 -1068z m7612
-1407 c482 -1361 897 -2532 922 -2602 l44 -128 -597 0 -598 0 -188 620 -189
620 -948 0 -947 0 -16 -52 c-9 -29 -93 -307 -188 -618 l-173 -565 -598 -3
c-477 -2 -597 0 -594 10 3 7 416 1180 919 2605 l914 2593 680 -3 679 -2 878
-2475z m5778 2020 l0 -460 -705 0 -705 0 0 -2145 0 -2145 -555 0 -555 0 0
2145 0 2145 -710 0 -710 0 0 460 0 460 1970 0 1970 0 0 -460z m3411 450 c917
-72 1448 -393 1637 -990 41 -128 60 -237 74 -413 31 -387 -57 -713 -268 -992
-136 -182 -344 -352 -589 -481 l-105 -56 214 -316 c118 -174 462 -684 764
-1132 l550 -815 -611 -3 c-481 -2 -614 1 -622 10 -7 7 -288 457 -625 1001
l-613 987 -294 0 -293 0 0 -1000 0 -1000 -555 0 -555 0 0 2605 0 2605 878 0
c519 0 933 -4 1013 -10z m7090 -2500 c489 -1378 904 -2549 923 -2602 l35 -98
-597 0 -597 0 -189 620 -189 620 -948 0 -948 0 -26 -82 c-14 -46 -99 -324
-189 -618 l-163 -535 -597 -3 c-477 -2 -597 0 -593 10 2 7 415 1176 917 2598
502 1422 914 2588 917 2593 2 4 309 6 680 5 l677 -3 887 -2505z"/>
<path d="M21606 12200 c-71 -264 -578 -1928 -623 -2045 -4 -13 85 -15 672 -15
538 0 676 3 672 13 -10 27 -363 1155 -462 1477 -107 349 -187 618 -200 678 -3
17 -10 32 -14 32 -4 0 -24 -63 -45 -140z"/>
<path d="M31610 11570 l0 -702 308 5 c329 5 428 16 587 62 246 72 401 225 462
455 24 90 24 311 0 399 -71 263 -264 401 -648 461 -41 7 -217 14 -391 17
l-318 5 0 -702z"/>
<path d="M37910 12336 c0 -48 -374 -1291 -654 -2173 l-7 -23 676 0 c640 0 676
1 671 18 -3 9 -84 267 -180 572 -226 721 -417 1344 -458 1497 -18 68 -36 123
-40 123 -5 0 -8 -6 -8 -14z"/>
<path d="M46435 13254 c-378 -38 -599 -91 -852 -202 -589 -261 -1019 -771
-1227 -1455 -180 -595 -189 -1415 -21 -2052 146 -556 401 -960 786 -1245 359
-266 775 -392 1349 -407 524 -14 955 52 1393 214 l127 47 0 463 c0 255 -3 463
-6 463 -3 0 -90 -27 -193 -60 -843 -274 -1460 -279 -1855 -16 -148 98 -297
276 -381 451 -237 500 -272 1371 -80 1965 202 623 644 946 1255 917 265 -13
553 -97 963 -282 74 -34 132 -54 137 -49 10 11 350 866 350 881 0 6 -51 33
-112 61 -310 137 -674 241 -1008 287 -109 15 -536 28 -625 19z"/>
<path d="M62415 13254 c-422 -41 -701 -129 -965 -303 -107 -70 -281 -242 -350
-345 -111 -166 -184 -358 -215 -561 -19 -129 -20 -410 0 -535 55 -363 256
-677 595 -931 183 -136 325 -217 760 -430 453 -222 574 -295 706 -421 131
-125 183 -252 170 -412 -17 -201 -112 -342 -290 -427 -129 -62 -243 -82 -466
-82 -209 0 -351 16 -555 65 -204 48 -619 195 -912 322 l-83 35 0 -515 0 -515
58 -26 c215 -96 436 -166 675 -212 216 -42 391 -61 632 -68 455 -13 855 52
1156 186 467 209 738 532 841 1006 19 87 22 131 22 335 0 206 -3 248 -22 338
-81 374 -279 640 -668 900 -158 106 -337 202 -744 404 -432 214 -566 295 -671
404 -103 107 -139 197 -139 343 1 103 12 156 51 237 57 121 185 217 354 266
72 20 100 23 270 22 212 -1 310 -14 520 -69 145 -38 404 -125 568 -190 108
-44 108 -44 117 -22 6 12 86 206 179 430 l169 408 -28 14 c-57 29 -299 124
-435 169 -247 83 -457 133 -679 162 -114 15 -531 27 -621 18z"/>
<path d="M50997 13173 c-3 -5 -415 -1171 -917 -2593 -502 -1422 -915 -2591
-917 -2598 -4 -10 116 -12 593 -10 l597 3 163 535 c90 294 175 572 189 618
l26 82 948 0 948 0 189 -620 189 -620 597 0 597 0 -35 98 c-19 53 -434 1224
-923 2602 l-887 2505 -677 3 c-371 1 -678 -1 -680 -5z m721 -946 c41 -153 232
-776 458 -1497 96 -305 177 -563 180 -572 5 -17 -31 -18 -671 -18 l-676 0 7
23 c280 882 654 2125 654 2173 0 8 3 14 8 14 4 0 22 -55 40 -123z"/>
<path d="M55590 10575 l0 -2605 550 0 550 0 0 1000 0 1000 294 0 294 0 611
-984 c337 -541 617 -991 624 -1000 11 -15 68 -16 623 -14 l612 3 -520 770
c-286 424 -630 933 -764 1132 l-245 362 72 37 c466 234 778 602 864 1018 55
269 33 645 -54 904 -200 597 -739 911 -1666 972 -90 5 -529 10 -1002 10 l-843
0 0 -2605z m1767 1680 c410 -54 617 -193 690 -465 24 -90 24 -310 0 -400 -61
-228 -210 -378 -452 -453 -159 -50 -247 -59 -587 -64 l-318 -5 0 701 0 701
274 0 c189 0 312 -5 393 -15z"/>
</g>
</svg>
