<?xml version="1.0" standalone="no"?>
<!DOCTYPE svg PUBLIC "-//W3C//DTD SVG 20010904//EN"
 "http://www.w3.org/TR/2001/REC-SVG-20010904/DTD/svg10.dtd">
<svg version="1.0" xmlns="http://www.w3.org/2000/svg"
width="140" height="45" viewBox="0 0 246.000000 88.000000"
 preserveAspectRatio="xMidYMid meet">

<g transform="translate(0.000000,88.000000) scale(0.100000,-0.100000)"
fill="#000000" stroke="none">
<path d="M335 700 l-190 -5 -3 -224 c-2 -173 1 -226 10 -233 7 -4 281 -8 608
-8 451 0 599 3 608 12 18 18 17 442 -2 457 -14 12 -617 12 -1031 1z m-70 -130
c9 -16 20 -30 25 -30 5 0 16 14 25 30 11 21 23 30 40 30 33 0 32 -18 -5 -80
-21 -36 -30 -64 -30 -94 0 -30 -5 -46 -15 -50 -30 -11 -45 5 -45 50 0 31 -9
59 -34 101 -19 32 -32 61 -29 65 2 5 15 8 28 8 17 0 29 -9 40 -30z m330 -74
c20 -58 34 -109 30 -115 -12 -20 -36 -11 -53 19 -23 41 -63 41 -92 0 -12 -16
-28 -30 -36 -30 -33 0 -28 22 41 218 2 6 20 12 39 12 l34 0 37 -104z m242 89
c7 -20 3 -24 -28 -28 -23 -4 -24 -7 -27 -90 -2 -66 -6 -86 -18 -91 -28 -11
-34 4 -34 85 0 80 0 81 -30 92 -18 7 -30 19 -30 29 0 16 10 18 80 18 63 0 82
-3 87 -15z m190 7 c26 -16 33 -61 16 -96 -15 -33 -15 -36 7 -71 18 -30 20 -39
9 -45 -18 -12 -46 5 -64 40 -22 42 -45 39 -45 -4 0 -34 -13 -47 -37 -38 -9 3
-13 35 -13 113 l0 109 58 0 c31 0 62 -4 69 -8z m258 -98 c30 -83 35 -108 25
-114 -19 -12 -40 -1 -51 26 -6 19 -16 24 -41 24 -26 0 -37 -6 -50 -31 -15 -25
-21 -28 -37 -19 -22 11 -22 9 20 130 27 80 34 90 69 90 26 0 30 -6 65 -106z"/>
<path d="M510 495 c0 -17 5 -25 13 -22 6 2 12 12 12 22 0 10 -6 20 -12 23 -8
2 -13 -6 -13 -23z"/>
<path d="M957 544 c-16 -16 -6 -34 19 -34 19 0 25 5 22 17 -3 19 -29 29 -41
17z"/>
<path d="M1207 520 c-10 -38 -8 -50 7 -50 22 0 25 12 12 45 l-12 30 -7 -25z"/>
<path d="M1519 571 c-25 -26 -29 -37 -29 -86 0 -46 4 -60 25 -81 21 -21 33
-25 72 -22 36 2 49 7 51 20 3 14 -4 17 -37 15 -51 -2 -66 13 -66 67 0 55 18
76 65 76 20 0 40 3 43 7 14 14 -17 33 -55 33 -30 0 -46 -7 -69 -29z"/>
<path d="M1773 588 c-9 -11 -73 -190 -73 -203 0 -3 9 -5 20 -5 12 0 25 10 32
25 9 20 18 25 50 25 32 0 40 -4 48 -25 9 -24 50 -37 50 -16 0 16 -62 185 -73
199 -5 6 -17 12 -27 12 -10 0 -22 -6 -27 -12z m41 -64 c12 -32 6 -54 -14 -54
-21 0 -24 10 -14 48 7 26 19 29 28 6z"/>
<path d="M1978 594 c-5 -4 -8 -54 -8 -111 0 -95 1 -103 19 -103 16 0 20 8 23
37 4 50 22 52 54 4 15 -24 35 -41 45 -41 24 0 24 7 -5 54 -24 38 -24 39 -5 59
25 27 24 59 -1 82 -21 19 -109 33 -122 19z m87 -64 c0 -18 -6 -26 -23 -28 -13
-2 -25 3 -28 12 -10 26 4 48 28 44 17 -2 23 -10 23 -28z"/>
<path d="M2211 581 c-37 -37 -19 -87 39 -111 18 -7 30 -20 30 -30 0 -23 -16
-29 -59 -22 -28 4 -33 2 -29 -14 5 -27 92 -33 120 -8 32 29 20 73 -27 105 -51
35 -51 53 -2 57 30 3 37 7 35 20 -5 27 -81 29 -107 3z"/>
</g>
</svg>
