<?xml version="1.0" standalone="no"?>
<!DOCTYPE svg PUBLIC "-//W3C//DTD SVG 20010904//EN"
 "http://www.w3.org/TR/2001/REC-SVG-20010904/DTD/svg10.dtd">
<svg version="1.0" xmlns="http://www.w3.org/2000/svg"
 width="140" height="45" viewBox="0 0 132.000000 45.000000"
 preserveAspectRatio="xMidYMid meet">

<g transform="translate(0.000000,45.000000) scale(0.100000,-0.100000)" fill="#FFFFFF" stroke="none">
<path d="M147 353 c-9 -8 -9 -180 -1 -210 l6 -23 308 0 308 0 6 31 c3 17 6 57
6 89 0 32 -3 72 -6 89 l-6 31 -308 0 c-168 0 -310 -3 -313 -7z m57 -59 c15
-14 17 -14 32 1 9 9 19 14 22 11 8 -9 -31 -117 -42 -113 -5 2 -15 25 -22 53
-19 72 -18 77 10 48z m170 -40 c20 -62 16 -76 -14 -49 -19 17 -21 17 -40 0
-30 -27 -34 -13 -16 49 23 76 46 76 70 0z m121 46 c3 -6 -1 -13 -9 -16 -11 -4
-16 -19 -16 -44 0 -55 -17 -59 -25 -6 -4 25 -14 47 -22 50 -24 10 -4 26 32 26
19 0 37 -5 40 -10z m92 4 c19 -5 21 -12 20 -60 -1 -30 -4 -54 -7 -54 -3 0 -11
10 -19 22 l-14 22 -8 -22 c-14 -38 -29 -15 -29 44 0 57 5 62 57 48z m131 -26
c6 -14 15 -41 19 -59 6 -33 6 -34 -14 -16 -24 21 -37 22 -53 2 -16 -20 -32 -8
-24 17 28 90 48 105 72 56z"/>
<path d="M560 270 c0 -5 5 -10 10 -10 6 0 10 5 10 10 0 6 -4 10 -10 10 -5 0
-10 -4 -10 -10z"/>
<path d="M691 254 c0 -11 3 -14 6 -6 3 7 2 16 -1 19 -3 4 -6 -2 -5 -13z"/>
<path d="M863 299 c-26 -9 -41 -55 -26 -78 6 -9 25 -17 44 -18 29 -2 30 -1 9
6 -20 6 -25 13 -25 41 0 28 4 35 25 40 18 4 21 8 10 12 -8 3 -25 2 -37 -3z"/>
<path d="M982 297 c-7 -8 -18 -32 -26 -55 -13 -37 -13 -42 -1 -42 8 0 15 5 15
10 0 14 33 13 48 -2 21 -21 23 -2 6 43 -22 56 -28 63 -42 46z m18 -42 c0 -8
-4 -15 -10 -15 -5 0 -10 7 -10 15 0 8 5 15 10 15 6 0 10 -7 10 -15z"/>
<path d="M1087 303 c-11 -10 -8 -103 3 -103 6 0 10 7 10 15 0 8 4 15 9 15 5 0
14 -7 21 -15 17 -21 33 -19 21 3 -5 9 -7 29 -4 44 4 23 1 29 -22 38 -31 12
-30 12 -38 3z m43 -34 c0 -5 -7 -9 -15 -9 -15 0 -20 12 -9 23 8 8 24 -1 24
-14z"/>
<path d="M1208 299 c-25 -14 -22 -36 8 -55 26 -18 23 -29 -11 -37 -13 -3 -8
-5 13 -6 42 -1 52 22 22 54 l-22 23 22 7 c18 6 20 9 9 16 -17 11 -20 11 -41
-2z"/>
</g>
</svg>
